<?xml version="1.0" standalone="no"?>
<!DOCTYPE svg PUBLIC "-//W3C//DTD SVG 20010904//EN"
 "http://www.w3.org/TR/2001/REC-SVG-20010904/DTD/svg10.dtd">
<svg version="1.0" xmlns="http://www.w3.org/2000/svg"
 width="1024.000000pt" height="1024.000000pt" viewBox="0 0 1024.000000 1024.000000"
 preserveAspectRatio="xMidYMid meet">

<g transform="translate(0.000000,1024.000000) scale(0.100000,-0.100000)"
fill="#000000" stroke="none">
<path d="M5785 7595 c-5 -2 -43 -11 -84 -20 -285 -66 -556 -263 -709 -517 -34
-57 -88 -165 -118 -239 -31 -74 -61 -139 -67 -146 -7 -7 -55 -19 -108 -27
-116 -17 -201 -51 -350 -141 -61 -36 -145 -83 -187 -104 -381 -186 -661 -553
-754 -986 -20 -96 -23 -137 -23 -325 0 -238 10 -309 66 -468 98 -276 272 -523
481 -683 154 -118 430 -225 641 -250 61 -7 527 -9 1392 -7 l1300 3 115 32
c188 51 291 106 443 236 174 149 290 294 363 451 66 144 118 353 134 536 24
274 -27 554 -142 785 -75 148 -205 331 -305 426 -121 116 -425 292 -507 293
-35 1 -40 -2 -47 -27 -4 -16 -4 -25 2 -21 5 3 9 -2 9 -10 0 -8 -8 -16 -17 -18
-10 -2 27 -21 82 -42 302 -116 542 -340 685 -638 150 -314 184 -621 104 -951
-88 -364 -219 -575 -469 -753 -147 -105 -359 -179 -492 -170 -44 3 -49 2 -18
-3 22 -4 -234 -6 -570 -4 -335 2 -616 6 -623 8 -7 3 -11 1 -8 -3 2 -4 -303 -6
-677 -4 -549 2 -695 5 -747 17 -36 8 -81 17 -100 20 -69 13 -276 86 -312 110
-20 14 -40 25 -43 25 -23 0 -184 122 -241 183 -69 73 -216 294 -256 384 -11
25 -41 119 -66 207 l-45 161 0 225 c1 324 13 389 105 574 55 111 87 160 169
262 144 178 344 319 543 384 85 28 107 49 136 129 31 82 45 89 221 102 202 14
224 28 275 171 54 150 156 319 252 421 64 66 205 168 299 216 137 68 343 102
509 83 176 -21 277 -55 434 -147 231 -135 410 -366 525 -675 15 -41 39 -90 52
-108 21 -28 30 -32 62 -31 l37 3 -23 45 c-12 25 -34 84 -48 131 -39 128 -137
315 -217 414 -79 99 -216 235 -279 278 -121 82 -324 165 -469 192 -71 14 -284
21 -315 11z m-2241 -2900 c4 -22 5 -37 1 -34 -8 9 -35 109 -34 129 1 21 24
-46 33 -95z m267 -492 c13 -16 12 -17 -3 -4 -10 7 -18 15 -18 17 0 8 8 3 21
-13z m562 -360 c-7 -2 -19 -2 -25 0 -7 3 -2 5 12 5 14 0 19 -2 13 -5z"/>
<path d="M4062 7110 c-34 -5 -72 -12 -83 -15 -20 -7 -20 -7 -2 -21 22 -16 29
-15 -149 -22 -21 -1 -38 -5 -38 -9 0 -5 66 -5 147 -1 82 5 183 5 226 2 110 -9
297 5 297 21 0 7 -17 16 -37 20 -21 4 -40 11 -43 16 -8 12 -244 19 -318 9z"/>
<path d="M4488 7063 c6 -2 18 -2 25 0 6 3 1 5 -13 5 -14 0 -19 -2 -12 -5z"/>
<path d="M3785 6625 c-25 -12 -26 -14 -5 -9 28 7 60 23 45 23 -5 0 -23 -6 -40
-14z"/>
<path d="M4990 6460 c-75 -10 -102 -23 -151 -67 -47 -43 -69 -86 -69 -136 l0
-34 -62 -7 c-73 -9 -116 -29 -127 -59 -5 -12 -6 -132 -4 -267 6 -320 19 -350
142 -350 48 0 48 0 55 -37 7 -46 6 -281 -3 -458 l-6 -130 -53 -6 c-61 -8 -95
-28 -123 -72 -19 -30 -20 -47 -17 -277 2 -197 6 -249 18 -268 17 -25 79 -46
120 -40 26 4 28 0 49 -71 18 -59 31 -83 62 -113 78 -74 27 -71 1104 -61 956 8
960 8 1000 30 62 32 121 103 139 164 9 29 16 59 16 66 0 8 12 13 33 13 41 0
92 31 110 67 22 44 33 449 13 497 -21 50 -69 78 -129 74 l-47 -3 0 307 c0 168
-3 313 -6 322 -5 13 3 16 49 16 66 0 98 22 122 83 13 36 16 76 13 241 l-3 198
-28 24 c-21 18 -40 24 -76 24 l-48 0 -5 68 c-9 122 -74 210 -182 249 -47 16
-114 18 -951 19 -495 1 -925 -1 -955 -6z m1111 -114 c697 -2 758 -3 782 -19
40 -26 67 -87 67 -151 0 -54 -1 -56 -32 -64 -18 -4 -34 -15 -36 -24 -3 -13 15
-17 110 -23 109 -7 145 -16 160 -39 11 -17 9 -321 -2 -351 l-10 -26 -175 3
c-171 3 -175 3 -169 -17 3 -11 8 -28 10 -37 6 -19 32 -30 82 -34 19 -1 37 -5
40 -9 4 -4 8 -153 10 -331 l3 -324 -44 0 c-67 0 -104 -17 -116 -52 -18 -51
-15 -61 12 -44 17 11 61 16 179 18 138 3 159 1 174 -14 19 -19 21 -45 16 -300
l-2 -148 -99 0 c-55 0 -106 -2 -114 -5 -10 -5 -13 -18 -9 -54 4 -43 0 -55 -28
-96 -18 -26 -46 -53 -64 -60 -42 -17 -1827 -25 -1867 -8 -41 18 -79 70 -79
109 0 33 1 34 44 34 55 0 104 17 117 41 7 13 6 45 -2 102 -7 53 -9 141 -4 252
8 196 10 190 -79 205 -31 5 -61 12 -66 15 -11 7 -14 642 -4 669 5 12 21 16 68
16 33 0 66 4 72 8 9 5 10 87 6 298 l-5 292 -39 12 c-36 10 -39 14 -35 38 l6
27 -12 -28 c-11 -28 -45 -44 -71 -34 -21 8 -4 73 29 107 55 58 73 61 255 54
90 -3 505 -7 921 -8z m-1158 -219 c30 -19 37 -79 37 -304 0 -137 -2 -153 -18
-162 -17 -9 -218 -6 -269 5 l-23 4 0 234 0 235 23 5 c50 11 225 -1 250 -17z
m-6 -1318 c15 -5 31 -16 35 -22 4 -7 8 -105 8 -218 0 -189 -2 -207 -17 -211
-10 -2 -81 -1 -158 2 l-140 5 3 210 c3 257 -4 245 142 245 54 0 111 -5 127
-11z"/>
<path d="M6606 6029 c-34 -40 -41 -72 -26 -110 31 -75 109 -92 166 -35 71 71
29 176 -69 176 -38 0 -49 -5 -71 -31z"/>
<path d="M5169 6021 c-48 -48 -34 -112 31 -146 42 -22 62 -19 108 15 47 34 53
59 24 103 -44 66 -113 78 -163 28z"/>
<path d="M5846 5949 c-259 -30 -482 -240 -557 -524 -27 -102 -30 -294 -6 -405
53 -240 244 -425 503 -486 142 -33 326 -1 481 86 273 152 390 521 277 871 -20
61 -50 131 -70 161 -114 167 -278 269 -479 297 -42 6 -77 10 -78 10 -1 -1 -33
-5 -71 -10z m204 -155 c0 -2 -12 -4 -27 -4 -21 0 -24 3 -14 9 13 8 41 5 41 -5z
m-287 -6 c4 -10 8 -9 16 2 9 12 11 10 11 -12 0 -24 -4 -28 -27 -28 -14 0 -50
-16 -78 -35 -28 -20 -64 -38 -81 -40 -28 -4 -28 -4 -6 7 17 9 22 18 19 35 -2
13 2 28 9 34 8 6 14 20 14 30 0 16 8 19 59 19 38 0 61 -4 64 -12z m364 -83
c220 -70 343 -295 304 -555 -23 -153 -126 -296 -256 -355 -101 -47 -163 -59
-270 -52 -113 6 -156 24 -221 88 -34 34 -54 47 -59 39 -15 -25 -103 86 -138
177 -9 23 -21 78 -26 122 -21 163 31 326 136 426 141 135 328 174 530 110z"/>
<path d="M5855 5512 c-95 -45 -161 -167 -152 -282 12 -160 108 -263 260 -277
52 -4 71 -1 118 20 65 29 98 67 135 158 45 109 21 229 -61 313 -50 51 -110 76
-193 82 -52 4 -76 1 -107 -14z m203 -165 c84 -81 84 -169 -1 -244 -72 -63
-152 -48 -194 38 -43 87 -18 176 63 226 49 30 86 24 132 -20z"/>
<path d="M5850 5253 c0 -12 5 -25 10 -28 13 -8 13 15 0 35 -8 12 -10 11 -10
-7z"/>
<path d="M5055 4880 c10 -11 20 -20 23 -20 3 0 -3 9 -13 20 -10 11 -20 20 -23
20 -3 0 3 -9 13 -20z"/>
<path d="M5228 4606 c3 -5 -5 -7 -16 -4 -12 4 -20 2 -16 -3 3 -5 0 -9 -6 -9
-6 0 -18 -16 -26 -35 -12 -31 -12 -39 0 -70 16 -37 67 -75 102 -75 24 0 79 54
93 93 12 31 -2 71 -35 97 -18 16 -106 21 -96 6z"/>
<path d="M6589 4571 c-33 -33 -35 -50 -14 -91 36 -69 114 -92 160 -46 50 50
42 110 -17 146 -48 29 -93 26 -129 -9z"/>
<path d="M6745 4170 l-70 -6 65 -2 c36 0 74 3 85 8 22 9 22 9 -80 0z"/>
<path d="M4788 5673 c17 -2 47 -2 65 0 17 2 3 4 -33 4 -36 0 -50 -2 -32 -4z"/>
<path d="M3052 5540 c0 -14 2 -19 5 -12 2 6 2 18 0 25 -3 6 -5 1 -5 -13z"/>
<path d="M3042 5490 c0 -14 2 -19 5 -12 2 6 2 18 0 25 -3 6 -5 1 -5 -13z"/>
<path d="M3026 5435 c-6 -24 -26 -36 -26 -15 0 6 -4 10 -10 10 -5 0 -10 -7
-10 -15 0 -8 -4 -15 -10 -15 -5 0 -10 7 -10 16 0 13 -13 14 -95 8 -77 -5 -95
-4 -96 7 -1 8 -4 3 -8 -11 -5 -20 -14 -26 -44 -28 -22 -2 -37 -8 -37 -16 0 -8
-17 -16 -40 -20 -25 -4 -40 -12 -40 -20 0 -9 -16 -17 -40 -21 -23 -4 -40 -12
-40 -20 0 -7 -17 -16 -37 -20 -21 -4 -44 -16 -51 -27 -8 -10 -20 -17 -28 -14
-20 8 -44 -4 -44 -20 0 -10 -10 -14 -35 -12 -27 2 -39 -3 -51 -20 -8 -12 -20
-20 -25 -17 -15 10 -11 -217 6 -354 29 -233 69 -378 154 -556 171 -357 421
-630 710 -775 90 -45 280 -106 385 -125 56 -9 158 -15 275 -16 219 -2 184 -13
-74 -24 -149 -6 -184 -5 -285 14 -207 37 -335 79 -467 155 -35 20 -63 31 -63
26 0 -6 7 -10 15 -10 8 0 15 -4 15 -10 0 -5 6 -10 13 -10 7 0 36 -16 64 -35
29 -19 58 -35 64 -35 15 0 5 -123 -10 -128 -6 -2 -11 -12 -11 -23 0 -10 -5
-19 -11 -19 -7 0 -9 -10 -7 -25 3 -14 -1 -30 -8 -36 -9 -8 -14 -34 -14 -75 0
-57 2 -64 20 -64 13 0 20 -7 20 -20 0 -13 7 -20 20 -20 17 0 20 -7 20 -40 0
-33 3 -40 20 -40 11 0 20 -4 20 -10 0 -5 9 -10 20 -10 13 0 20 -7 20 -20 0
-13 7 -20 20 -20 11 0 20 -4 20 -10 0 -5 9 -10 20 -10 13 0 20 -7 20 -19 0
-15 10 -21 40 -26 23 -4 40 -12 40 -20 0 -8 17 -16 40 -20 22 -4 40 -10 40
-14 0 -9 163 -30 221 -28 32 1 51 -3 63 -15 10 -10 30 -18 46 -18 16 0 30 -4
32 -10 4 -11 121 -30 191 -30 26 0 47 -4 47 -10 0 -5 18 -10 40 -10 22 0 40
-4 40 -10 0 -6 33 -10 80 -10 48 0 80 4 80 10 0 7 6 7 19 0 25 -13 61 -13 61
0 0 6 18 10 40 10 22 0 40 -4 40 -8 0 -9 531 -27 760 -26 342 1 674 12 678 23
2 6 17 11 33 11 16 0 29 3 29 8 0 4 30 13 68 20 37 7 69 17 70 22 2 6 17 10
33 10 16 0 29 5 29 10 0 6 9 10 20 10 26 0 100 23 100 31 0 3 18 14 40 24 21
10 38 23 37 29 -1 6 10 12 26 14 15 2 32 12 37 23 6 10 17 19 25 19 7 0 17 9
20 20 3 11 13 20 20 20 8 0 21 13 29 29 8 15 31 42 50 59 20 17 36 35 36 39 0
5 9 14 20 21 11 7 20 21 20 31 0 32 12 55 20 40 5 -8 13 3 21 29 7 23 17 42
23 42 16 0 59 70 44 70 -7 0 -4 6 7 12 29 16 29 16 15 33 -11 13 -6 15 41 16
30 1 117 5 194 9 77 4 -375 5 -1005 2 -1169 -4 -1350 -1 -1515 33 -197 40
-501 169 -661 280 -165 115 -334 291 -456 475 -130 196 -208 386 -264 641 -35
163 -44 415 -20 593 15 113 16 157 2 101z m-13 -50 c-3 -9 -8 -14 -10 -11 -3
3 -2 9 2 15 9 16 15 13 8 -4z"/>
<path d="M7535 5420 c-74 -23 -145 -125 -145 -208 0 -124 132 -240 244 -216
152 33 233 189 165 320 -36 71 -90 105 -170 110 -35 2 -77 -1 -94 -6z m107
-40 c44 -13 93 -52 113 -91 21 -41 19 -127 -4 -165 -22 -36 -71 -75 -118 -93
-87 -35 -215 112 -188 216 9 39 72 113 109 129 38 16 42 16 88 4z"/>
<path d="M4035 5404 c-44 -24 -74 -54 -102 -102 -22 -36 -25 -52 -21 -106 4
-74 28 -115 92 -161 37 -27 49 -30 117 -30 66 0 81 4 117 28 23 15 54 46 69
69 56 85 27 216 -64 285 -30 23 -47 28 -107 31 -51 2 -79 -2 -101 -14z m163
-50 c33 -22 81 -91 88 -129 9 -51 -4 -90 -44 -135 -35 -38 -110 -77 -122 -62
-3 4 -18 14 -35 22 -16 8 -34 16 -40 19 -5 3 -4 -3 4 -12 8 -10 9 -17 3 -17
-15 0 -55 59 -56 84 -1 11 -5 37 -10 57 -10 45 7 110 37 144 27 31 93 57 127
49 14 -3 35 -12 48 -20z"/>
<path d="M4553 4500 c0 -36 2 -50 4 -32 2 17 2 47 0 65 -2 17 -4 3 -4 -33z"/>
<path d="M4590 4239 c0 -12 109 -63 117 -55 3 3 12 1 20 -5 11 -9 12 -5 7 22
-4 19 -7 35 -8 35 -6 7 -136 9 -136 3z"/>
<path d="M4755 4118 c13 -23 21 -46 19 -50 -3 -5 0 -7 8 -6 7 2 14 -7 16 -20
2 -15 9 -22 17 -18 8 3 12 0 9 -7 -4 -12 61 -44 80 -39 4 2 14 -2 20 -7 15
-12 1525 -6 1568 6 15 5 -322 7 -749 5 -864 -3 -847 -4 -922 63 -21 19 -46 52
-56 75 -10 22 -22 40 -26 40 -4 0 3 -19 16 -42z"/>
<path d="M6798 3983 c12 -2 32 -2 45 0 12 2 2 4 -23 4 -25 0 -35 -2 -22 -4z"/>
<path d="M2710 3666 c0 -2 8 -10 18 -17 15 -13 16 -12 3 4 -13 16 -21 21 -21
13z"/>
<path d="M2825 3558 c11 -15 28 -29 38 -31 24 -7 22 -3 -20 29 l-37 28 19 -26z"/>
</g>
</svg>
